<svg width="306" height="87" viewBox="0 0 306 87" fill="none" xmlns="http://www.w3.org/2000/svg">
<g filter="url(#filter0_d_6_286)">
<path d="M47.1815 22.7644C51.7745 20.4019 57.2255 20.4019 61.8185 22.7644L69.6342 26.7845C74.9649 29.5264 78.3157 35.0181 78.3157 41.0127V45.9873C78.3157 51.9819 74.9649 57.4736 69.6342 60.2155L61.8185 64.2356C57.2255 66.5981 51.7745 66.5981 47.1815 64.2356L39.3658 60.2155C34.0351 57.4736 30.6843 51.9819 30.6843 45.9873V41.0127C30.6843 35.0181 34.0351 29.5264 39.3658 26.7845L47.1815 22.7644Z" fill="url(#paint0_linear_6_286)"/>
<path d="M47.4102 23.209C51.8597 20.9204 57.1403 20.9204 61.5898 23.209L69.4055 27.2291C74.5696 29.8854 77.8157 35.2054 77.8157 41.0127V45.9873C77.8157 51.7946 74.5696 57.1146 69.4055 59.7709L61.5898 63.791C57.1403 66.0796 51.8597 66.0796 47.4102 63.791L39.5945 59.7709C34.4304 57.1146 31.1843 51.7946 31.1843 45.9873V41.0127C31.1843 35.2054 34.4304 29.8854 39.5945 27.2291L47.4102 23.209Z" stroke="white" style="mix-blend-mode:overlay"/>
</g>
<g filter="url(#filter1_b_6_286)">
<path d="M37.8212 37.1012C32.738 29.3175 38.3228 19 47.6193 19H292C299.732 19 306 25.268 306 33V54C306 61.732 299.732 68 292 68H47.6193C38.3228 68 32.738 57.6825 37.8212 49.8988C40.3603 46.0108 40.3603 40.9892 37.8212 37.1012Z" fill="#0E1129" fill-opacity="0.3"/>
<path d="M38.2398 36.8278C33.3738 29.3767 38.72 19.5 47.6193 19.5H292C299.456 19.5 305.5 25.5442 305.5 33V54C305.5 61.4558 299.456 67.5 292 67.5H47.6193C38.72 67.5 33.3738 57.6233 38.2398 50.1722C40.8874 46.118 40.8874 40.882 38.2398 36.8278Z" stroke="white" style="mix-blend-mode:overlay"/>
</g>
<path d="M102.5 48H87.5C87.22 48 87 47.78 87 47.5V37.5C87 37.22 87.22 37 87.5 37H102.5C102.78 37 103 37.22 103 37.5V47.5C103 47.78 102.78 48 102.5 48Z" stroke="white" stroke-width="1.2" stroke-miterlimit="10" stroke-linecap="round" stroke-linejoin="round"/>
<path d="M102 51H88C86.34 51 85 49.66 85 48H105C105 49.66 103.66 51 102 51Z" stroke="white" stroke-width="1.2" stroke-miterlimit="10" stroke-linecap="round" stroke-linejoin="round"/>
<path d="M118 49.5V47.412H119.56C120.301 47.412 120.933 47.284 121.456 47.028C121.984 46.7667 122.387 46.356 122.664 45.796C122.941 45.236 123.08 44.5027 123.08 43.596C123.08 42.6787 122.941 41.9507 122.664 41.412C122.392 40.8733 121.995 40.4893 121.472 40.26C120.949 40.0253 120.309 39.908 119.552 39.908H117.936V37.868H119.784C120.941 37.868 121.939 38.0787 122.776 38.5C123.619 38.9213 124.267 39.5533 124.72 40.396C125.179 41.2387 125.408 42.2973 125.408 43.572C125.408 44.8413 125.171 45.916 124.696 46.796C124.221 47.676 123.565 48.348 122.728 48.812C121.891 49.2707 120.925 49.5 119.832 49.5H118ZM116.192 49.5V37.868H118.44V49.5H116.192ZM130.672 49.62C129.845 49.62 129.125 49.4467 128.512 49.1C127.899 48.7533 127.424 48.244 127.088 47.572C126.752 46.8947 126.584 46.0653 126.584 45.084C126.584 44.156 126.76 43.356 127.112 42.684C127.469 42.012 127.96 41.4973 128.584 41.14C129.208 40.7773 129.915 40.596 130.704 40.596C131.557 40.596 132.288 40.7773 132.896 41.14C133.509 41.4973 133.979 42.012 134.304 42.684C134.629 43.356 134.792 44.156 134.792 45.084C134.792 46.0653 134.611 46.8947 134.248 47.572C133.885 48.244 133.392 48.7533 132.768 49.1C132.149 49.4467 131.451 49.62 130.672 49.62ZM130.704 47.772C131.248 47.772 131.696 47.5693 132.048 47.164C132.405 46.7587 132.584 46.0653 132.584 45.084C132.584 44.172 132.405 43.5053 132.048 43.084C131.691 42.6573 131.232 42.444 130.672 42.444C130.128 42.444 129.68 42.6547 129.328 43.076C128.976 43.4973 128.8 44.1667 128.8 45.084C128.8 46.0227 128.981 46.7053 129.344 47.132C129.707 47.5587 130.16 47.772 130.704 47.772ZM138.056 49.5L135.496 40.772H137.848L138.776 45.02L139.28 47.692H139.376L139.792 45.02L140.736 40.772H143.496L144.432 45.028L144.848 47.748L144.944 47.74L145.456 45.028L146.384 40.772H148.736L146.184 49.5H143.576L142.616 45.484L142.176 42.956H142.064L141.608 45.492L140.656 49.5H138.056ZM150.034 49.5V40.764H151.978L152.186 44.06L152.074 43.396C152.138 42.916 152.264 42.4627 152.45 42.036C152.637 41.604 152.917 41.2547 153.29 40.988C153.669 40.7213 154.168 40.588 154.786 40.588C155.597 40.588 156.237 40.8467 156.706 41.364C157.176 41.876 157.41 42.66 157.41 43.716V49.5H155.202V44.516C155.202 43.988 155.152 43.5773 155.05 43.284C154.954 42.9853 154.808 42.7747 154.61 42.652C154.418 42.5293 154.173 42.468 153.874 42.468C153.512 42.468 153.184 42.58 152.89 42.804C152.602 43.028 152.389 43.2867 152.25 43.58V49.5H150.034ZM159.605 49.5V37.028H161.821V49.5H159.605ZM167.594 49.62C166.767 49.62 166.047 49.4467 165.434 49.1C164.821 48.7533 164.346 48.244 164.01 47.572C163.674 46.8947 163.506 46.0653 163.506 45.084C163.506 44.156 163.682 43.356 164.034 42.684C164.391 42.012 164.882 41.4973 165.506 41.14C166.13 40.7773 166.837 40.596 167.626 40.596C168.479 40.596 169.21 40.7773 169.818 41.14C170.431 41.4973 170.901 42.012 171.226 42.684C171.551 43.356 171.714 44.156 171.714 45.084C171.714 46.0653 171.533 46.8947 171.17 47.572C170.807 48.244 170.314 48.7533 169.69 49.1C169.071 49.4467 168.373 49.62 167.594 49.62ZM167.626 47.772C168.17 47.772 168.618 47.5693 168.97 47.164C169.327 46.7587 169.506 46.0653 169.506 45.084C169.506 44.172 169.327 43.5053 168.97 43.084C168.613 42.6573 168.154 42.444 167.594 42.444C167.05 42.444 166.602 42.6547 166.25 43.076C165.898 43.4973 165.722 44.1667 165.722 45.084C165.722 46.0227 165.903 46.7053 166.266 47.132C166.629 47.5587 167.082 47.772 167.626 47.772ZM175.624 49.596C175.112 49.596 174.651 49.5 174.24 49.308C173.835 49.116 173.515 48.8387 173.28 48.476C173.051 48.1133 172.936 47.684 172.936 47.188C172.936 46.6653 173.037 46.236 173.24 45.9C173.443 45.5587 173.725 45.2893 174.088 45.092C174.451 44.8893 174.869 44.74 175.344 44.644C175.675 44.5747 176.016 44.5187 176.368 44.476C176.725 44.428 177.059 44.3907 177.368 44.364C177.677 44.3373 177.928 44.316 178.12 44.3V44.004C178.12 43.4333 178.016 43.02 177.808 42.764C177.6 42.5027 177.243 42.372 176.736 42.372C176.411 42.372 176.136 42.4147 175.912 42.5C175.693 42.5853 175.528 42.74 175.416 42.964C175.304 43.188 175.248 43.5107 175.248 43.932H173.184C173.125 43.1693 173.24 42.5427 173.528 42.052C173.821 41.5613 174.251 41.1987 174.816 40.964C175.387 40.724 176.056 40.604 176.824 40.604C177.277 40.604 177.709 40.6547 178.12 40.756C178.536 40.852 178.904 41.02 179.224 41.26C179.549 41.4947 179.805 41.8173 179.992 42.228C180.184 42.6387 180.28 43.1587 180.28 43.788V49.5H178.104L178.12 47.5C178.024 48.0867 177.779 48.5827 177.384 48.988C176.989 49.3933 176.403 49.596 175.624 49.596ZM176.296 48.052C176.568 48.052 176.832 48.004 177.088 47.908C177.349 47.8067 177.573 47.668 177.76 47.492C177.952 47.316 178.072 47.1133 178.12 46.884V45.404C177.907 45.436 177.675 45.4733 177.424 45.516C177.173 45.5587 176.955 45.6013 176.768 45.644C176.203 45.7613 175.805 45.924 175.576 46.132C175.352 46.3347 175.24 46.62 175.24 46.988C175.24 47.2067 175.283 47.396 175.368 47.556C175.459 47.716 175.584 47.8387 175.744 47.924C175.909 48.0093 176.093 48.052 176.296 48.052ZM185.273 49.604C184.558 49.604 183.95 49.4147 183.449 49.036C182.953 48.652 182.577 48.1213 182.321 47.444C182.065 46.7667 181.937 45.9827 181.937 45.092C181.937 44.1267 182.092 43.3107 182.401 42.644C182.71 41.9773 183.126 41.4707 183.649 41.124C184.172 40.7773 184.753 40.604 185.393 40.604C185.894 40.604 186.308 40.6893 186.633 40.86C186.958 41.0253 187.209 41.236 187.385 41.492C187.561 41.748 187.676 42.0013 187.729 42.252L188.145 42.716L187.625 43.34C187.577 43.1693 187.489 43.0173 187.361 42.884C187.238 42.7453 187.07 42.636 186.857 42.556C186.649 42.476 186.388 42.436 186.073 42.436C185.492 42.436 185.028 42.652 184.681 43.084C184.334 43.516 184.161 44.1987 184.161 45.132C184.161 45.996 184.324 46.6573 184.649 47.116C184.974 47.5693 185.422 47.796 185.993 47.796C186.318 47.796 186.596 47.7453 186.825 47.644C187.06 47.5373 187.244 47.4147 187.377 47.276C187.516 47.132 187.598 47.004 187.625 46.892L187.721 47.076L187.625 47.492C187.577 47.7373 187.5 47.9853 187.393 48.236C187.286 48.4867 187.142 48.716 186.961 48.924C186.78 49.1267 186.55 49.292 186.273 49.42C186.001 49.5427 185.668 49.604 185.273 49.604ZM187.633 49.5L187.625 37.052H189.825V49.5H187.633ZM195.43 49.5V43.356C195.43 43.132 195.47 42.956 195.55 42.828C195.636 42.6947 195.756 42.6067 195.91 42.564L195.43 41.124V39.732C195.43 39.0493 195.566 38.4813 195.838 38.028C196.11 37.5747 196.473 37.236 196.926 37.012C197.385 36.788 197.889 36.676 198.438 36.676C198.764 36.676 199.02 36.6867 199.206 36.708C199.398 36.724 199.577 36.7453 199.742 36.772L199.734 38.74C199.617 38.6973 199.47 38.6627 199.294 38.636C199.124 38.6093 198.921 38.596 198.686 38.596C198.462 38.596 198.27 38.636 198.11 38.716C197.95 38.7907 197.828 38.9293 197.742 39.132C197.662 39.3293 197.622 39.6093 197.622 39.972V49.5H195.43ZM194.246 42.564V40.764H199.406V42.564H194.246ZM204.266 49.62C203.439 49.62 202.719 49.4467 202.106 49.1C201.492 48.7533 201.018 48.244 200.682 47.572C200.346 46.8947 200.178 46.0653 200.178 45.084C200.178 44.156 200.354 43.356 200.706 42.684C201.063 42.012 201.554 41.4973 202.178 41.14C202.802 40.7773 203.508 40.596 204.298 40.596C205.151 40.596 205.882 40.7773 206.49 41.14C207.103 41.4973 207.572 42.012 207.898 42.684C208.223 43.356 208.386 44.156 208.386 45.084C208.386 46.0653 208.204 46.8947 207.842 47.572C207.479 48.244 206.986 48.7533 206.362 49.1C205.743 49.4467 205.044 49.62 204.266 49.62ZM204.298 47.772C204.842 47.772 205.29 47.5693 205.642 47.164C205.999 46.7587 206.178 46.0653 206.178 45.084C206.178 44.172 205.999 43.5053 205.642 43.084C205.284 42.6573 204.826 42.444 204.266 42.444C203.722 42.444 203.274 42.6547 202.922 43.076C202.57 43.4973 202.394 44.1667 202.394 45.084C202.394 46.0227 202.575 46.7053 202.938 47.132C203.3 47.5587 203.754 47.772 204.298 47.772ZM210.066 49.5V40.764H212.01L212.218 44.164L212.058 43.668C212.106 43.2573 212.186 42.868 212.298 42.5C212.415 42.132 212.572 41.804 212.77 41.516C212.972 41.228 213.22 41.0013 213.514 40.836C213.812 40.6707 214.162 40.588 214.562 40.588C214.668 40.588 214.775 40.5933 214.882 40.604C214.994 40.6147 215.092 40.6333 215.178 40.66V42.98C214.996 42.9267 214.812 42.892 214.626 42.876C214.444 42.8547 214.268 42.844 214.098 42.844C213.847 42.844 213.602 42.8787 213.362 42.948C213.122 43.012 212.908 43.1133 212.722 43.252C212.535 43.3853 212.388 43.5533 212.282 43.756V49.5H210.066ZM219.364 49.5V37.868H223.012L224.636 44.004L225.188 46.204H225.228L225.796 44.004L227.38 37.868H231.044V49.5H228.844V43.252L229.028 39.828H228.964L227.948 43.188L226.004 49.5H224.452L222.46 43.188L221.444 39.828H221.372L221.556 43.252V49.5H219.364ZM235.499 49.596C234.987 49.596 234.526 49.5 234.115 49.308C233.71 49.116 233.39 48.8387 233.155 48.476C232.926 48.1133 232.811 47.684 232.811 47.188C232.811 46.6653 232.912 46.236 233.115 45.9C233.318 45.5587 233.6 45.2893 233.963 45.092C234.326 44.8893 234.744 44.74 235.219 44.644C235.55 44.5747 235.891 44.5187 236.243 44.476C236.6 44.428 236.934 44.3907 237.243 44.364C237.552 44.3373 237.803 44.316 237.995 44.3V44.004C237.995 43.4333 237.891 43.02 237.683 42.764C237.475 42.5027 237.118 42.372 236.611 42.372C236.286 42.372 236.011 42.4147 235.787 42.5C235.568 42.5853 235.403 42.74 235.291 42.964C235.179 43.188 235.123 43.5107 235.123 43.932H233.059C233 43.1693 233.115 42.5427 233.403 42.052C233.696 41.5613 234.126 41.1987 234.691 40.964C235.262 40.724 235.931 40.604 236.699 40.604C237.152 40.604 237.584 40.6547 237.995 40.756C238.411 40.852 238.779 41.02 239.099 41.26C239.424 41.4947 239.68 41.8173 239.867 42.228C240.059 42.6387 240.155 43.1587 240.155 43.788V49.5H237.979L237.995 47.5C237.899 48.0867 237.654 48.5827 237.259 48.988C236.864 49.3933 236.278 49.596 235.499 49.596ZM236.171 48.052C236.443 48.052 236.707 48.004 236.963 47.908C237.224 47.8067 237.448 47.668 237.635 47.492C237.827 47.316 237.947 47.1133 237.995 46.884V45.404C237.782 45.436 237.55 45.4733 237.299 45.516C237.048 45.5587 236.83 45.6013 236.643 45.644C236.078 45.7613 235.68 45.924 235.451 46.132C235.227 46.3347 235.115 46.62 235.115 46.988C235.115 47.2067 235.158 47.396 235.243 47.556C235.334 47.716 235.459 47.8387 235.619 47.924C235.784 48.0093 235.968 48.052 236.171 48.052ZM245.916 49.652C245.025 49.652 244.27 49.4627 243.652 49.084C243.033 48.7 242.564 48.1667 242.243 47.484C241.929 46.796 241.772 46.0013 241.772 45.1C241.772 44.1613 241.934 43.356 242.26 42.684C242.59 42.012 243.06 41.4973 243.668 41.14C244.276 40.7827 244.993 40.604 245.82 40.604C246.636 40.604 247.316 40.748 247.86 41.036C248.404 41.324 248.806 41.716 249.068 42.212C249.334 42.708 249.452 43.2653 249.42 43.884H247.3C247.289 43.644 247.252 43.4307 247.188 43.244C247.124 43.0573 247.03 42.9027 246.908 42.78C246.785 42.652 246.633 42.556 246.452 42.492C246.27 42.428 246.06 42.396 245.82 42.396C245.174 42.3907 244.705 42.62 244.412 43.084C244.124 43.5427 243.98 44.2013 243.98 45.06C243.98 46.02 244.148 46.7213 244.484 47.164C244.825 47.6013 245.329 47.828 245.996 47.844C246.198 47.8493 246.404 47.8067 246.612 47.716C246.825 47.62 247.001 47.4733 247.14 47.276C247.278 47.0787 247.342 46.8307 247.332 46.532H249.444C249.46 47.1613 249.318 47.7107 249.02 48.18C248.721 48.6493 248.302 49.012 247.764 49.268C247.23 49.524 246.614 49.652 245.916 49.652Z" fill="white"/>
<defs>
<filter id="filter0_d_6_286" x="0.684326" y="0.992493" width="87.6313" height="85.015" filterUnits="userSpaceOnUse" color-interpolation-filters="sRGB">
<feFlood flood-opacity="0" result="BackgroundImageFix"/>
<feColorMatrix in="SourceAlpha" type="matrix" values="0 0 0 0 0 0 0 0 0 0 0 0 0 0 0 0 0 0 127 0" result="hardAlpha"/>
<feOffset dx="-10"/>
<feGaussianBlur stdDeviation="10"/>
<feComposite in2="hardAlpha" operator="out"/>
<feColorMatrix type="matrix" values="0 0 0 0 0.418939 0 0 0 0 0.755954 0 0 0 0 1 0 0 0 0.2 0"/>
<feBlend mode="normal" in2="BackgroundImageFix" result="effect1_dropShadow_6_286"/>
<feBlend mode="normal" in="SourceGraphic" in2="effect1_dropShadow_6_286" result="shape"/>
</filter>
<filter id="filter1_b_6_286" x="-4.10254" y="-21" width="350.103" height="129" filterUnits="userSpaceOnUse" color-interpolation-filters="sRGB">
<feFlood flood-opacity="0" result="BackgroundImageFix"/>
<feGaussianBlur in="BackgroundImage" stdDeviation="20"/>
<feComposite in2="SourceAlpha" operator="in" result="effect1_backgroundBlur_6_286"/>
<feBlend mode="normal" in="SourceGraphic" in2="effect1_backgroundBlur_6_286" result="shape"/>
</filter>
<linearGradient id="paint0_linear_6_286" x1="51.8264" y1="44.8611" x2="38.4517" y2="61.3747" gradientUnits="userSpaceOnUse">
<stop stop-color="#C441F4"/>
<stop offset="1" stop-color="#00DAEA"/>
</linearGradient>
</defs>
</svg>
