<svg width="774" height="50" viewBox="0 0 774 50" fill="none" xmlns="http://www.w3.org/2000/svg">
<path d="M15.9926 1.06131C17.1302 0.404568 18.5316 0.404567 19.6691 1.06131L31.4346 7.85414C32.5721 8.51087 33.2729 9.72458 33.2729 11.0381V24.6237C33.2729 25.9372 32.5721 27.1509 31.4346 27.8076L19.6691 34.6005C18.5316 35.2572 17.1302 35.2572 15.9926 34.6005L4.22712 27.8076C3.08962 27.1509 2.38889 25.9372 2.38889 24.6237V11.0381C2.38889 9.72458 3.08962 8.51087 4.22712 7.85414L15.9926 1.06131Z" fill="url(#paint0_linear_3_827)"/>
<g style="mix-blend-mode:hard-light">
<path d="M16.1765 15.2934C17.2002 14.7024 18.4615 14.7024 19.4853 15.2934L31.6185 22.2985C32.6422 22.8896 33.2729 23.9819 33.2729 25.164V39.1742C33.2729 40.3563 32.6422 41.4487 31.6185 42.0397L19.4853 49.0448C18.4615 49.6359 17.2002 49.6359 16.1765 49.0448L4.0433 42.0397C3.01954 41.4487 2.38889 40.3563 2.38889 39.1742V25.164C2.38889 23.9819 3.01954 22.8896 4.0433 22.2985L16.1765 15.2934Z" fill="url(#paint1_linear_3_827)"/>
</g>
<path d="M123.318 30.5V18.868H125.558V30.5H123.318ZM116.854 30.5V18.868H119.094V30.5H116.854ZM118.422 25.532V23.532H123.686L123.67 25.532H118.422ZM131.302 30.62C130.476 30.62 129.756 30.4467 129.142 30.1C128.529 29.7533 128.054 29.244 127.718 28.572C127.382 27.8947 127.214 27.0653 127.214 26.084C127.214 25.156 127.39 24.356 127.742 23.684C128.1 23.012 128.59 22.4973 129.214 22.14C129.838 21.7773 130.545 21.596 131.334 21.596C132.188 21.596 132.918 21.7773 133.526 22.14C134.14 22.4973 134.609 23.012 134.934 23.684C135.26 24.356 135.422 25.156 135.422 26.084C135.422 27.0653 135.241 27.8947 134.878 28.572C134.516 29.244 134.022 29.7533 133.398 30.1C132.78 30.4467 132.081 30.62 131.302 30.62ZM131.334 28.772C131.878 28.772 132.326 28.5693 132.678 28.164C133.036 27.7587 133.214 27.0653 133.214 26.084C133.214 25.172 133.036 24.5053 132.678 24.084C132.321 23.6573 131.862 23.444 131.302 23.444C130.758 23.444 130.31 23.6547 129.958 24.076C129.606 24.4973 129.43 25.1667 129.43 26.084C129.43 27.0227 129.612 27.7053 129.974 28.132C130.337 28.5587 130.79 28.772 131.334 28.772ZM137.102 30.5V21.764H139.046L139.254 25.06L139.142 24.396C139.206 23.916 139.326 23.4627 139.502 23.036C139.684 22.604 139.956 22.2547 140.318 21.988C140.686 21.7213 141.18 21.588 141.798 21.588C142.492 21.588 143.06 21.7933 143.502 22.204C143.95 22.6093 144.225 23.236 144.326 24.084L144.358 24.372V30.5H142.142V25.516C142.142 24.988 142.094 24.5773 141.998 24.284C141.908 23.9853 141.772 23.7747 141.59 23.652C141.409 23.5293 141.182 23.468 140.91 23.468C140.542 23.468 140.22 23.58 139.942 23.804C139.665 24.028 139.457 24.2867 139.318 24.58V30.5H137.102ZM147.174 30.5V25.516C147.174 24.988 147.126 24.5773 147.03 24.284C146.94 23.9853 146.804 23.7747 146.622 23.652C146.441 23.5293 146.214 23.468 145.942 23.468C145.574 23.468 145.252 23.58 144.974 23.804C144.702 24.028 144.497 24.2867 144.358 24.58L144.326 25.06L144.238 24.492C144.292 24.028 144.404 23.5747 144.574 23.132C144.745 22.684 145.009 22.316 145.366 22.028C145.729 21.7347 146.217 21.588 146.83 21.588C147.614 21.588 148.236 21.8467 148.694 22.364C149.158 22.876 149.39 23.66 149.39 24.716V30.5H147.174ZM155.154 30.62C154.29 30.62 153.549 30.4467 152.93 30.1C152.311 29.748 151.837 29.2387 151.506 28.572C151.175 27.9 151.01 27.084 151.01 26.124C151.01 25.1533 151.183 24.332 151.53 23.66C151.882 22.988 152.37 22.476 152.994 22.124C153.623 21.772 154.354 21.596 155.186 21.596C155.997 21.596 156.682 21.7533 157.242 22.068C157.807 22.3773 158.237 22.8387 158.53 23.452C158.823 24.06 158.97 24.8067 158.97 25.692C158.97 25.836 158.965 25.972 158.954 26.1C158.949 26.228 158.941 26.38 158.93 26.556H153.186C153.239 27.356 153.434 27.9427 153.77 28.316C154.111 28.6893 154.554 28.876 155.098 28.876C155.578 28.876 155.943 28.772 156.194 28.564C156.445 28.356 156.602 28.1027 156.666 27.804H158.786C158.738 28.3853 158.557 28.8893 158.242 29.316C157.933 29.7373 157.514 30.06 156.986 30.284C156.463 30.508 155.853 30.62 155.154 30.62ZM154.13 25.204H156.818C156.797 24.6067 156.65 24.1533 156.378 23.844C156.111 23.5347 155.685 23.38 155.098 23.38C154.453 23.38 153.975 23.604 153.666 24.052C153.362 24.4947 153.197 25.1187 153.17 25.924C153.213 25.6467 153.311 25.4573 153.466 25.356C153.621 25.2547 153.842 25.204 154.13 25.204Z" fill="white"/>
<path d="M242.662 30.5V28.412H244.222C244.963 28.412 245.595 28.284 246.118 28.028C246.646 27.7667 247.049 27.356 247.326 26.796C247.603 26.236 247.742 25.5027 247.742 24.596C247.742 23.6787 247.603 22.9507 247.326 22.412C247.054 21.8733 246.657 21.4893 246.134 21.26C245.611 21.0253 244.971 20.908 244.214 20.908H242.598V18.868H244.446C245.603 18.868 246.601 19.0787 247.438 19.5C248.281 19.9213 248.929 20.5533 249.382 21.396C249.841 22.2387 250.07 23.2973 250.07 24.572C250.07 25.8413 249.833 26.916 249.358 27.796C248.883 28.676 248.227 29.348 247.39 29.812C246.553 30.2707 245.587 30.5 244.494 30.5H242.662ZM240.854 30.5V18.868H243.102V30.5H240.854ZM255.334 30.62C254.507 30.62 253.787 30.4467 253.174 30.1C252.561 29.7533 252.086 29.244 251.75 28.572C251.414 27.8947 251.246 27.0653 251.246 26.084C251.246 25.156 251.422 24.356 251.774 23.684C252.131 23.012 252.622 22.4973 253.246 22.14C253.87 21.7773 254.577 21.596 255.366 21.596C256.219 21.596 256.95 21.7773 257.558 22.14C258.171 22.4973 258.641 23.012 258.966 23.684C259.291 24.356 259.454 25.156 259.454 26.084C259.454 27.0653 259.273 27.8947 258.91 28.572C258.547 29.244 258.054 29.7533 257.43 30.1C256.811 30.4467 256.113 30.62 255.334 30.62ZM255.366 28.772C255.91 28.772 256.358 28.5693 256.71 28.164C257.067 27.7587 257.246 27.0653 257.246 26.084C257.246 25.172 257.067 24.5053 256.71 24.084C256.353 23.6573 255.894 23.444 255.334 23.444C254.79 23.444 254.342 23.6547 253.99 24.076C253.638 24.4973 253.462 25.1667 253.462 26.084C253.462 27.0227 253.643 27.7053 254.006 28.132C254.369 28.5587 254.822 28.772 255.366 28.772ZM262.718 30.5L260.158 21.772H262.51L263.438 26.02L263.942 28.692H264.038L264.454 26.02L265.398 21.772H268.158L269.094 26.028L269.51 28.748L269.606 28.74L270.118 26.028L271.046 21.772H273.398L270.846 30.5H268.238L267.278 26.484L266.838 23.956H266.726L266.27 26.492L265.318 30.5H262.718ZM274.696 30.5V21.764H276.64L276.848 25.06L276.736 24.396C276.8 23.916 276.925 23.4627 277.112 23.036C277.299 22.604 277.579 22.2547 277.952 21.988C278.331 21.7213 278.829 21.588 279.448 21.588C280.259 21.588 280.899 21.8467 281.368 22.364C281.837 22.876 282.072 23.66 282.072 24.716V30.5H279.864V25.516C279.864 24.988 279.813 24.5773 279.712 24.284C279.616 23.9853 279.469 23.7747 279.272 23.652C279.08 23.5293 278.835 23.468 278.536 23.468C278.173 23.468 277.845 23.58 277.552 23.804C277.264 24.028 277.051 24.2867 276.912 24.58V30.5H274.696ZM284.267 30.5V18.028H286.483V30.5H284.267ZM292.256 30.62C291.429 30.62 290.709 30.4467 290.096 30.1C289.482 29.7533 289.008 29.244 288.672 28.572C288.336 27.8947 288.168 27.0653 288.168 26.084C288.168 25.156 288.344 24.356 288.696 23.684C289.053 23.012 289.544 22.4973 290.168 22.14C290.792 21.7773 291.498 21.596 292.288 21.596C293.141 21.596 293.872 21.7773 294.48 22.14C295.093 22.4973 295.562 23.012 295.888 23.684C296.213 24.356 296.376 25.156 296.376 26.084C296.376 27.0653 296.194 27.8947 295.832 28.572C295.469 29.244 294.976 29.7533 294.352 30.1C293.733 30.4467 293.034 30.62 292.256 30.62ZM292.288 28.772C292.832 28.772 293.28 28.5693 293.632 28.164C293.989 27.7587 294.168 27.0653 294.168 26.084C294.168 25.172 293.989 24.5053 293.632 24.084C293.274 23.6573 292.816 23.444 292.256 23.444C291.712 23.444 291.264 23.6547 290.912 24.076C290.56 24.4973 290.384 25.1667 290.384 26.084C290.384 27.0227 290.565 27.7053 290.928 28.132C291.29 28.5587 291.744 28.772 292.288 28.772ZM300.286 30.596C299.774 30.596 299.313 30.5 298.902 30.308C298.497 30.116 298.177 29.8387 297.942 29.476C297.713 29.1133 297.598 28.684 297.598 28.188C297.598 27.6653 297.699 27.236 297.902 26.9C298.105 26.5587 298.387 26.2893 298.75 26.092C299.113 25.8893 299.531 25.74 300.006 25.644C300.337 25.5747 300.678 25.5187 301.03 25.476C301.387 25.428 301.721 25.3907 302.03 25.364C302.339 25.3373 302.59 25.316 302.782 25.3V25.004C302.782 24.4333 302.678 24.02 302.47 23.764C302.262 23.5027 301.905 23.372 301.398 23.372C301.073 23.372 300.798 23.4147 300.574 23.5C300.355 23.5853 300.19 23.74 300.078 23.964C299.966 24.188 299.91 24.5107 299.91 24.932H297.846C297.787 24.1693 297.902 23.5427 298.19 23.052C298.483 22.5613 298.913 22.1987 299.478 21.964C300.049 21.724 300.718 21.604 301.486 21.604C301.939 21.604 302.371 21.6547 302.782 21.756C303.198 21.852 303.566 22.02 303.886 22.26C304.211 22.4947 304.467 22.8173 304.654 23.228C304.846 23.6387 304.942 24.1587 304.942 24.788V30.5H302.766L302.782 28.5C302.686 29.0867 302.441 29.5827 302.046 29.988C301.651 30.3933 301.065 30.596 300.286 30.596ZM300.958 29.052C301.23 29.052 301.494 29.004 301.75 28.908C302.011 28.8067 302.235 28.668 302.422 28.492C302.614 28.316 302.734 28.1133 302.782 27.884V26.404C302.569 26.436 302.337 26.4733 302.086 26.516C301.835 26.5587 301.617 26.6013 301.43 26.644C300.865 26.7613 300.467 26.924 300.238 27.132C300.014 27.3347 299.902 27.62 299.902 27.988C299.902 28.2067 299.945 28.396 300.03 28.556C300.121 28.716 300.246 28.8387 300.406 28.924C300.571 29.0093 300.755 29.052 300.958 29.052ZM309.935 30.604C309.22 30.604 308.612 30.4147 308.111 30.036C307.615 29.652 307.239 29.1213 306.983 28.444C306.727 27.7667 306.599 26.9827 306.599 26.092C306.599 25.1267 306.753 24.3107 307.063 23.644C307.372 22.9773 307.788 22.4707 308.311 22.124C308.833 21.7773 309.415 21.604 310.055 21.604C310.556 21.604 310.969 21.6893 311.295 21.86C311.62 22.0253 311.871 22.236 312.047 22.492C312.223 22.748 312.337 23.0013 312.391 23.252L312.807 23.716L312.287 24.34C312.239 24.1693 312.151 24.0173 312.023 23.884C311.9 23.7453 311.732 23.636 311.519 23.556C311.311 23.476 311.049 23.436 310.735 23.436C310.153 23.436 309.689 23.652 309.343 24.084C308.996 24.516 308.823 25.1987 308.823 26.132C308.823 26.996 308.985 27.6573 309.311 28.116C309.636 28.5693 310.084 28.796 310.655 28.796C310.98 28.796 311.257 28.7453 311.487 28.644C311.721 28.5373 311.905 28.4147 312.039 28.276C312.177 28.132 312.26 28.004 312.287 27.892L312.383 28.076L312.287 28.492C312.239 28.7373 312.161 28.9853 312.055 29.236C311.948 29.4867 311.804 29.716 311.623 29.924C311.441 30.1267 311.212 30.292 310.935 30.42C310.663 30.5427 310.329 30.604 309.935 30.604ZM312.295 30.5L312.287 18.052H314.487V30.5H312.295Z" fill="white"/>
<path d="M395.814 30.5L399.47 18.868H402.702L406.358 30.5H403.982L402.926 26.86L404.182 27.78H398.438L398.79 25.964H403.654L402.918 26.836L401.766 22.908L401.126 20.42H401.022L400.39 22.908L398.182 30.5H395.814ZM412.051 30.604C411.555 30.604 411.139 30.5187 410.803 30.348C410.472 30.1773 410.216 29.9667 410.035 29.716C409.859 29.46 409.744 29.2067 409.691 28.956L408.867 28.972L409.795 27.956C409.837 28.1267 409.923 28.2813 410.051 28.42C410.179 28.5533 410.352 28.66 410.571 28.74C410.789 28.8147 411.053 28.852 411.363 28.852C411.928 28.852 412.379 28.636 412.715 28.204C413.051 27.7667 413.219 27.0653 413.219 26.1C413.219 25.2307 413.059 24.572 412.739 24.124C412.419 23.676 411.981 23.452 411.427 23.452C411.101 23.452 410.821 23.4973 410.587 23.588C410.357 23.6787 410.176 23.788 410.043 23.916C409.909 24.0387 409.827 24.1587 409.795 24.276V23.652C409.837 23.4013 409.912 23.156 410.019 22.916C410.125 22.6707 410.272 22.4493 410.459 22.252C410.651 22.0547 410.891 21.8973 411.179 21.78C411.467 21.6627 411.811 21.604 412.211 21.604C412.899 21.604 413.483 21.7907 413.963 22.164C414.443 22.5373 414.808 23.0573 415.059 23.724C415.315 24.3853 415.443 25.1533 415.443 26.028C415.443 26.7747 415.355 27.4333 415.179 28.004C415.003 28.5693 414.76 29.0467 414.451 29.436C414.141 29.82 413.781 30.1107 413.371 30.308C412.96 30.5053 412.52 30.604 412.051 30.604ZM407.595 33.724V21.772H409.755L409.795 23.068V28.3L409.691 28.956L409.795 30.508V33.724H407.595ZM421.613 30.604C421.117 30.604 420.701 30.5187 420.365 30.348C420.035 30.1773 419.779 29.9667 419.597 29.716C419.421 29.46 419.307 29.2067 419.253 28.956L418.429 28.972L419.357 27.956C419.4 28.1267 419.485 28.2813 419.613 28.42C419.741 28.5533 419.915 28.66 420.133 28.74C420.352 28.8147 420.616 28.852 420.925 28.852C421.491 28.852 421.941 28.636 422.277 28.204C422.613 27.7667 422.781 27.0653 422.781 26.1C422.781 25.2307 422.621 24.572 422.301 24.124C421.981 23.676 421.544 23.452 420.989 23.452C420.664 23.452 420.384 23.4973 420.149 23.588C419.92 23.6787 419.739 23.788 419.605 23.916C419.472 24.0387 419.389 24.1587 419.357 24.276V23.652C419.4 23.4013 419.475 23.156 419.581 22.916C419.688 22.6707 419.835 22.4493 420.021 22.252C420.213 22.0547 420.453 21.8973 420.741 21.78C421.029 21.6627 421.373 21.604 421.773 21.604C422.461 21.604 423.045 21.7907 423.525 22.164C424.005 22.5373 424.371 23.0573 424.621 23.724C424.877 24.3853 425.005 25.1533 425.005 26.028C425.005 26.7747 424.917 27.4333 424.741 28.004C424.565 28.5693 424.323 29.0467 424.013 29.436C423.704 29.82 423.344 30.1107 422.933 30.308C422.523 30.5053 422.083 30.604 421.613 30.604ZM417.157 33.724V21.772H419.317L419.357 23.068V28.3L419.253 28.956L419.357 30.508V33.724H417.157Z" fill="white"/>
<path d="M506.854 30.5V18.868H509.102V29.716L507.83 28.412H513.598V30.5H506.854ZM518.474 30.62C517.648 30.62 516.928 30.4467 516.314 30.1C515.701 29.7533 515.226 29.244 514.89 28.572C514.554 27.8947 514.386 27.0653 514.386 26.084C514.386 25.156 514.562 24.356 514.914 23.684C515.272 23.012 515.762 22.4973 516.386 22.14C517.01 21.7773 517.717 21.596 518.506 21.596C519.36 21.596 520.09 21.7773 520.698 22.14C521.312 22.4973 521.781 23.012 522.106 23.684C522.432 24.356 522.594 25.156 522.594 26.084C522.594 27.0653 522.413 27.8947 522.05 28.572C521.688 29.244 521.194 29.7533 520.57 30.1C519.952 30.4467 519.253 30.62 518.474 30.62ZM518.506 28.772C519.05 28.772 519.498 28.5693 519.85 28.164C520.208 27.7587 520.386 27.0653 520.386 26.084C520.386 25.172 520.208 24.5053 519.85 24.084C519.493 23.6573 519.034 23.444 518.474 23.444C517.93 23.444 517.482 23.6547 517.13 24.076C516.778 24.4973 516.602 25.1667 516.602 26.084C516.602 27.0227 516.784 27.7053 517.146 28.132C517.509 28.5587 517.962 28.772 518.506 28.772ZM527.945 34.076C527.155 34.0867 526.465 33.964 525.873 33.708C525.286 33.4573 524.841 33.0893 524.537 32.604C524.238 32.124 524.123 31.548 524.193 30.876H526.329C526.329 31.148 526.369 31.3907 526.449 31.604C526.529 31.8173 526.689 31.9853 526.929 32.108C527.169 32.236 527.518 32.3 527.977 32.3C528.393 32.3 528.71 32.2413 528.929 32.124C529.153 32.012 529.307 31.836 529.393 31.596C529.478 31.356 529.521 31.052 529.521 30.684V28.268C529.457 28.6307 529.334 28.9587 529.153 29.252C528.971 29.54 528.718 29.7667 528.393 29.932C528.067 30.0973 527.651 30.18 527.145 30.18C526.622 30.18 526.155 30.068 525.745 29.844C525.339 29.62 524.995 29.316 524.713 28.932C524.43 28.5427 524.214 28.0973 524.065 27.596C523.921 27.0947 523.849 26.5693 523.849 26.02C523.849 25.06 524.001 24.2547 524.305 23.604C524.614 22.948 525.022 22.452 525.529 22.116C526.041 21.7747 526.606 21.604 527.225 21.604C527.683 21.604 528.067 21.6707 528.377 21.804C528.686 21.932 528.934 22.0973 529.121 22.3C529.313 22.5027 529.454 22.7133 529.545 22.932L529.593 21.772H531.705V30.548C531.705 31.332 531.553 31.9827 531.249 32.5C530.95 33.0227 530.521 33.412 529.961 33.668C529.401 33.9293 528.729 34.0653 527.945 34.076ZM527.889 28.388C528.219 28.388 528.497 28.348 528.721 28.268C528.945 28.1827 529.121 28.0787 529.249 27.956C529.382 27.828 529.473 27.7053 529.521 27.588V24.268C529.467 24.1187 529.371 23.9827 529.233 23.86C529.099 23.7373 528.923 23.636 528.705 23.556C528.491 23.476 528.235 23.436 527.937 23.436C527.377 23.436 526.929 23.6413 526.593 24.052C526.257 24.4627 526.089 25.1 526.089 25.964C526.089 26.732 526.249 27.3293 526.569 27.756C526.889 28.1773 527.329 28.388 527.889 28.388ZM533.899 30.5V21.764H536.107L536.099 30.5H533.899ZM535.011 20.628C534.627 20.628 534.302 20.4947 534.035 20.228C533.769 19.9613 533.635 19.62 533.635 19.204C533.635 18.788 533.769 18.4493 534.035 18.188C534.307 17.9213 534.633 17.788 535.011 17.788C535.39 17.788 535.713 17.9213 535.979 18.188C536.251 18.4493 536.387 18.788 536.387 19.204C536.387 19.62 536.251 19.9613 535.979 20.228C535.713 20.4947 535.39 20.628 535.011 20.628ZM538.321 30.5V21.764H540.265L540.473 25.06L540.361 24.396C540.425 23.916 540.55 23.4627 540.737 23.036C540.924 22.604 541.204 22.2547 541.577 21.988C541.956 21.7213 542.454 21.588 543.073 21.588C543.884 21.588 544.524 21.8467 544.993 22.364C545.462 22.876 545.697 23.66 545.697 24.716V30.5H543.489V25.516C543.489 24.988 543.438 24.5773 543.337 24.284C543.241 23.9853 543.094 23.7747 542.897 23.652C542.705 23.5293 542.46 23.468 542.161 23.468C541.798 23.468 541.47 23.58 541.177 23.804C540.889 24.028 540.676 24.2867 540.537 24.58V30.5H538.321Z" fill="white"/>
<g filter="url(#filter0_b_3_827)">
<rect x="627.662" y="0.5" width="146" height="49" rx="14" fill="#1F42FA" fill-opacity="0.26"/>
<path d="M663.79 30.66C662.718 30.66 661.774 30.42 660.958 29.94C660.142 29.46 659.502 28.7693 659.038 27.868C658.579 26.9667 658.35 25.884 658.35 24.62C658.35 23.372 658.574 22.3027 659.022 21.412C659.475 20.5213 660.102 19.8387 660.902 19.364C661.707 18.8893 662.635 18.652 663.686 18.652C664.432 18.652 665.126 18.7933 665.766 19.076C666.411 19.3587 666.942 19.7827 667.358 20.348C667.774 20.908 668.014 21.612 668.078 22.46H665.878C665.84 22.2627 665.768 22.0653 665.662 21.868C665.555 21.6653 665.411 21.4813 665.23 21.316C665.054 21.1453 664.835 21.0093 664.574 20.908C664.318 20.8067 664.016 20.756 663.67 20.756C663.206 20.756 662.787 20.8413 662.414 21.012C662.04 21.1827 661.72 21.436 661.454 21.772C661.192 22.1027 660.99 22.5107 660.846 22.996C660.707 23.476 660.638 24.028 660.638 24.652C660.638 25.4787 660.758 26.1827 660.998 26.764C661.238 27.3453 661.595 27.7907 662.07 28.1C662.544 28.404 663.128 28.556 663.822 28.556C664.099 28.556 664.379 28.532 664.662 28.484C664.944 28.436 665.208 28.3667 665.454 28.276C665.704 28.18 665.915 28.06 666.086 27.916V26.14H663.886V24.228H668.206L668.198 29.108C667.579 29.572 666.91 29.948 666.19 30.236C665.47 30.5187 664.67 30.66 663.79 30.66ZM673.732 30.62C672.868 30.62 672.127 30.4467 671.508 30.1C670.889 29.748 670.415 29.2387 670.084 28.572C669.753 27.9 669.588 27.084 669.588 26.124C669.588 25.1533 669.761 24.332 670.108 23.66C670.46 22.988 670.948 22.476 671.572 22.124C672.201 21.772 672.932 21.596 673.764 21.596C674.575 21.596 675.26 21.7533 675.82 22.068C676.385 22.3773 676.815 22.8387 677.108 23.452C677.401 24.06 677.548 24.8067 677.548 25.692C677.548 25.836 677.543 25.972 677.532 26.1C677.527 26.228 677.519 26.38 677.508 26.556H671.764C671.817 27.356 672.012 27.9427 672.348 28.316C672.689 28.6893 673.132 28.876 673.676 28.876C674.156 28.876 674.521 28.772 674.772 28.564C675.023 28.356 675.18 28.1027 675.244 27.804H677.364C677.316 28.3853 677.135 28.8893 676.82 29.316C676.511 29.7373 676.092 30.06 675.564 30.284C675.041 30.508 674.431 30.62 673.732 30.62ZM672.708 25.204H675.396C675.375 24.6067 675.228 24.1533 674.956 23.844C674.689 23.5347 674.263 23.38 673.676 23.38C673.031 23.38 672.553 23.604 672.244 24.052C671.94 24.4947 671.775 25.1187 671.748 25.924C671.791 25.6467 671.889 25.4573 672.044 25.356C672.199 25.2547 672.42 25.204 672.708 25.204ZM681.806 30.612C681.096 30.612 680.544 30.4333 680.15 30.076C679.755 29.7133 679.558 29.1747 679.558 28.46L679.542 24.308C679.542 24.1213 679.59 23.9613 679.686 23.828C679.782 23.6947 679.918 23.6067 680.094 23.564L679.542 22.116V21.868L679.982 19.268H681.734V27.828C681.734 28.1693 681.79 28.4067 681.902 28.54C682.019 28.6733 682.235 28.74 682.55 28.74C682.8 28.74 683.022 28.7373 683.214 28.732C683.406 28.7267 683.582 28.716 683.742 28.7V30.492C683.512 30.556 683.219 30.5907 682.862 30.596C682.504 30.6067 682.152 30.612 681.806 30.612ZM678.51 23.564V21.764H683.718V23.564H678.51ZM691.94 30.66C691.071 30.66 690.3 30.524 689.628 30.252C688.956 29.9747 688.431 29.5533 688.052 28.988C687.679 28.4173 687.497 27.6947 687.508 26.82H689.684C689.695 27.236 689.785 27.588 689.956 27.876C690.132 28.1587 690.391 28.372 690.732 28.516C691.079 28.66 691.508 28.732 692.02 28.732C692.473 28.732 692.844 28.684 693.132 28.588C693.42 28.4867 693.633 28.34 693.772 28.148C693.911 27.956 693.98 27.7267 693.98 27.46C693.98 27.1667 693.892 26.9213 693.716 26.724C693.54 26.5213 693.263 26.3347 692.884 26.164C692.505 25.988 692.012 25.796 691.404 25.588C690.711 25.3427 690.103 25.06 689.58 24.74C689.063 24.4147 688.663 24.0227 688.38 23.564C688.097 23.1 687.956 22.5453 687.956 21.9C687.956 20.8493 688.308 20.052 689.012 19.508C689.721 18.9587 690.687 18.684 691.908 18.684C692.745 18.684 693.436 18.8147 693.98 19.076C694.524 19.3373 694.937 19.724 695.22 20.236C695.508 20.748 695.687 21.38 695.756 22.132H693.604C693.577 21.8013 693.495 21.524 693.356 21.3C693.223 21.0707 693.033 20.9 692.788 20.788C692.548 20.6707 692.247 20.612 691.884 20.612C691.329 20.612 690.903 20.7133 690.604 20.916C690.305 21.1187 690.156 21.428 690.156 21.844C690.156 22.116 690.215 22.356 690.332 22.564C690.449 22.7667 690.665 22.964 690.98 23.156C691.3 23.3427 691.761 23.5507 692.364 23.78C692.871 23.9773 693.356 24.1667 693.82 24.348C694.284 24.5293 694.695 24.7427 695.052 24.988C695.415 25.228 695.697 25.5293 695.9 25.892C696.108 26.2493 696.215 26.708 696.22 27.268C696.225 28.3827 695.852 29.228 695.1 29.804C694.348 30.3747 693.295 30.66 691.94 30.66ZM700.384 30.612C699.675 30.612 699.123 30.4333 698.728 30.076C698.333 29.7133 698.136 29.1747 698.136 28.46L698.12 24.308C698.12 24.1213 698.168 23.9613 698.264 23.828C698.36 23.6947 698.496 23.6067 698.672 23.564L698.12 22.116V21.868L698.56 19.268H700.312V27.828C700.312 28.1693 700.368 28.4067 700.48 28.54C700.597 28.6733 700.813 28.74 701.128 28.74C701.379 28.74 701.6 28.7373 701.792 28.732C701.984 28.7267 702.16 28.716 702.32 28.7V30.492C702.091 30.556 701.797 30.5907 701.44 30.596C701.083 30.6067 700.731 30.612 700.384 30.612ZM697.088 23.564V21.764H702.296V23.564H697.088ZM706.145 30.596C705.633 30.596 705.172 30.5 704.761 30.308C704.356 30.116 704.036 29.8387 703.801 29.476C703.572 29.1133 703.457 28.684 703.457 28.188C703.457 27.6653 703.558 27.236 703.761 26.9C703.964 26.5587 704.246 26.2893 704.609 26.092C704.972 25.8893 705.39 25.74 705.865 25.644C706.196 25.5747 706.537 25.5187 706.889 25.476C707.246 25.428 707.58 25.3907 707.889 25.364C708.198 25.3373 708.449 25.316 708.641 25.3V25.004C708.641 24.4333 708.537 24.02 708.329 23.764C708.121 23.5027 707.764 23.372 707.257 23.372C706.932 23.372 706.657 23.4147 706.433 23.5C706.214 23.5853 706.049 23.74 705.937 23.964C705.825 24.188 705.769 24.5107 705.769 24.932H703.705C703.646 24.1693 703.761 23.5427 704.049 23.052C704.342 22.5613 704.772 22.1987 705.337 21.964C705.908 21.724 706.577 21.604 707.345 21.604C707.798 21.604 708.23 21.6547 708.641 21.756C709.057 21.852 709.425 22.02 709.745 22.26C710.07 22.4947 710.326 22.8173 710.513 23.228C710.705 23.6387 710.801 24.1587 710.801 24.788V30.5H708.625L708.641 28.5C708.545 29.0867 708.3 29.5827 707.905 29.988C707.51 30.3933 706.924 30.596 706.145 30.596ZM706.817 29.052C707.089 29.052 707.353 29.004 707.609 28.908C707.87 28.8067 708.094 28.668 708.281 28.492C708.473 28.316 708.593 28.1133 708.641 27.884V26.404C708.428 26.436 708.196 26.4733 707.945 26.516C707.694 26.5587 707.476 26.6013 707.289 26.644C706.724 26.7613 706.326 26.924 706.097 27.132C705.873 27.3347 705.761 27.62 705.761 27.988C705.761 28.2067 705.804 28.396 705.889 28.556C705.98 28.716 706.105 28.8387 706.265 28.924C706.43 29.0093 706.614 29.052 706.817 29.052ZM712.93 30.5V21.764H714.874L715.082 25.164L714.922 24.668C714.97 24.2573 715.05 23.868 715.162 23.5C715.28 23.132 715.437 22.804 715.634 22.516C715.837 22.228 716.085 22.0013 716.378 21.836C716.677 21.6707 717.026 21.588 717.426 21.588C717.533 21.588 717.64 21.5933 717.746 21.604C717.858 21.6147 717.957 21.6333 718.042 21.66V23.98C717.861 23.9267 717.677 23.892 717.49 23.876C717.309 23.8547 717.133 23.844 716.962 23.844C716.712 23.844 716.466 23.8787 716.226 23.948C715.986 24.012 715.773 24.1133 715.586 24.252C715.4 24.3853 715.253 24.5533 715.146 24.756V30.5H712.93ZM722.384 30.612C721.675 30.612 721.123 30.4333 720.728 30.076C720.333 29.7133 720.136 29.1747 720.136 28.46L720.12 24.308C720.12 24.1213 720.168 23.9613 720.264 23.828C720.36 23.6947 720.496 23.6067 720.672 23.564L720.12 22.116V21.868L720.56 19.268H722.312V27.828C722.312 28.1693 722.368 28.4067 722.48 28.54C722.597 28.6733 722.813 28.74 723.128 28.74C723.379 28.74 723.6 28.7373 723.792 28.732C723.984 28.7267 724.16 28.716 724.32 28.7V30.492C724.091 30.556 723.797 30.5907 723.44 30.596C723.083 30.6067 722.731 30.612 722.384 30.612ZM719.088 23.564V21.764H724.296V23.564H719.088ZM729.404 30.62C728.54 30.62 727.798 30.4467 727.18 30.1C726.561 29.748 726.086 29.2387 725.756 28.572C725.425 27.9 725.26 27.084 725.26 26.124C725.26 25.1533 725.433 24.332 725.78 23.66C726.132 22.988 726.62 22.476 727.244 22.124C727.873 21.772 728.604 21.596 729.436 21.596C730.246 21.596 730.932 21.7533 731.492 22.068C732.057 22.3773 732.486 22.8387 732.78 23.452C733.073 24.06 733.22 24.8067 733.22 25.692C733.22 25.836 733.214 25.972 733.204 26.1C733.198 26.228 733.19 26.38 733.18 26.556H727.436C727.489 27.356 727.684 27.9427 728.02 28.316C728.361 28.6893 728.804 28.876 729.348 28.876C729.828 28.876 730.193 28.772 730.444 28.564C730.694 28.356 730.852 28.1027 730.916 27.804H733.036C732.988 28.3853 732.806 28.8893 732.492 29.316C732.182 29.7373 731.764 30.06 731.236 30.284C730.713 30.508 730.102 30.62 729.404 30.62ZM728.38 25.204H731.068C731.046 24.6067 730.9 24.1533 730.628 23.844C730.361 23.5347 729.934 23.38 729.348 23.38C728.702 23.38 728.225 23.604 727.916 24.052C727.612 24.4947 727.446 25.1187 727.42 25.924C727.462 25.6467 727.561 25.4573 727.716 25.356C727.87 25.2547 728.092 25.204 728.38 25.204ZM737.841 30.604C737.126 30.604 736.518 30.4147 736.017 30.036C735.521 29.652 735.145 29.1213 734.889 28.444C734.633 27.7667 734.505 26.9827 734.505 26.092C734.505 25.1267 734.659 24.3107 734.969 23.644C735.278 22.9773 735.694 22.4707 736.217 22.124C736.739 21.7773 737.321 21.604 737.961 21.604C738.462 21.604 738.875 21.6893 739.201 21.86C739.526 22.0253 739.777 22.236 739.953 22.492C740.129 22.748 740.243 23.0013 740.297 23.252L740.713 23.716L740.193 24.34C740.145 24.1693 740.057 24.0173 739.929 23.884C739.806 23.7453 739.638 23.636 739.425 23.556C739.217 23.476 738.955 23.436 738.641 23.436C738.059 23.436 737.595 23.652 737.249 24.084C736.902 24.516 736.729 25.1987 736.729 26.132C736.729 26.996 736.891 27.6573 737.217 28.116C737.542 28.5693 737.99 28.796 738.561 28.796C738.886 28.796 739.163 28.7453 739.393 28.644C739.627 28.5373 739.811 28.4147 739.945 28.276C740.083 28.132 740.166 28.004 740.193 27.892L740.289 28.076L740.193 28.492C740.145 28.7373 740.067 28.9853 739.961 29.236C739.854 29.4867 739.71 29.716 739.529 29.924C739.347 30.1267 739.118 30.292 738.841 30.42C738.569 30.5427 738.235 30.604 737.841 30.604ZM740.201 30.5L740.193 18.052H742.393V30.5H740.201Z" fill="white"/>
<rect x="628.162" y="1" width="145" height="48" rx="13.5" stroke="white" style="mix-blend-mode:overlay"/>
</g>
<defs>
<filter id="filter0_b_3_827" x="587.662" y="-39.5" width="226" height="129" filterUnits="userSpaceOnUse" color-interpolation-filters="sRGB">
<feFlood flood-opacity="0" result="BackgroundImageFix"/>
<feGaussianBlur in="BackgroundImage" stdDeviation="20"/>
<feComposite in2="SourceAlpha" operator="in" result="effect1_backgroundBlur_3_827"/>
<feBlend mode="normal" in="SourceGraphic" in2="effect1_backgroundBlur_3_827" result="shape"/>
</filter>
<linearGradient id="paint0_linear_3_827" x1="17.8309" y1="0" x2="17.8309" y2="35.6618" gradientUnits="userSpaceOnUse">
<stop stop-color="#01B3FF"/>
<stop offset="1" stop-color="#6BD997"/>
</linearGradient>
<linearGradient id="paint1_linear_3_827" x1="17.8309" y1="14.3382" x2="17.8309" y2="50" gradientUnits="userSpaceOnUse">
<stop stop-color="#4301FF"/>
<stop offset="1" stop-color="#D96BCE"/>
</linearGradient>
</defs>
</svg>
